HIERARCHY
ROOT root_translation_joint
{
	OFFSET	0	0	0
	CHANNELS 6 Xposition Yposition Zposition Zrotation Xrotation Yrotation
	JOINT head_joint
	{
		OFFSET	0	0.4982	0
		CHANNELS 3  Zrotation Xrotation Yrotation
		JOINT middleleftshoulder_joint
		{
			OFFSET	0	0	0
			CHANNELS 3  Zrotation Xrotation Yrotation
			JOINT MiddleLeftUpperLimb_x_joint
			{
				OFFSET	-0.1891	0	-0.0795
				CHANNELS 3  Zrotation Xrotation Yrotation
				JOINT MiddleLeftLimb_joint
				{
					OFFSET	-0.4456	0.0015	0.1781
					CHANNELS 3  Zrotation Xrotation Yrotation
					JOINT MiddleLeftLowerLimb_joint
					{
						OFFSET	-0.3928	-0.0167	-0.3044
						CHANNELS 3  Zrotation Xrotation Yrotation
						JOINT MiddleLeftEffector_x_joint
						{
							OFFSET	-0.4343	-0.054	-0.1597
							CHANNELS 3  Zrotation Xrotation Yrotation
							JOINT Middleleft_foot_endeffector_joint
							{
								OFFSET	-0.024924	-0.097428	0.001788
								CHANNELS 3  Zrotation Xrotation Yrotation
								End Site
								{
									OFFSET	-0.0001239	-0.000484324	8.88832e-06
								}
							}
							JOINT Middleleft_foot_cp_1_joint
							{
								OFFSET	-0.05	0.02	-0.005
								CHANNELS 3  Zrotation Xrotation Yrotation
								End Site
								{
									OFFSET	-0.00046225	0.0001849	-4.6225e-05
								}
							}
							JOINT Middleleft_foot_cp_2_joint
							{
								OFFSET	-0.12	0.02	-0.005
								CHANNELS 3  Zrotation Xrotation Yrotation
								End Site
								{
									OFFSET	-0.000492781	8.21302e-05	-2.05325e-05
								}
							}
							JOINT Middleleft_foot_cp_3_joint
							{
								OFFSET	-0.12	-0.08	-0.005
								CHANNELS 3  Zrotation Xrotation Yrotation
								End Site
								{
									OFFSET	-0.000415775	-0.000277184	-1.7324e-05
								}
							}
							JOINT Middleleft_foot_cp_4_joint
							{
								OFFSET	-0.05	-0.08	-0.005
								CHANNELS 3  Zrotation Xrotation Yrotation
								End Site
								{
									OFFSET	-0.000264628	-0.000423405	-2.64628e-05
								}
							}
						}
					}
				}
			}
		}
		JOINT frontleftshoulder_joint
		{
			OFFSET	0	0	0
			CHANNELS 3  Zrotation Xrotation Yrotation
			JOINT FrontLeftUpperLimb_x_joint
			{
				OFFSET	-0.1891	0	-0.0795
				CHANNELS 3  Zrotation Xrotation Yrotation
				JOINT FrontLeftLimb_joint
				{
					OFFSET	-0.4456	0.0015	0.1781
					CHANNELS 3  Zrotation Xrotation Yrotation
					JOINT FrontLeftLowerLimb_joint
					{
						OFFSET	-0.3928	-0.0167	-0.3044
						CHANNELS 3  Zrotation Xrotation Yrotation
						JOINT FrontLeftEffector_x_joint
						{
							OFFSET	-0.4343	-0.054	-0.1597
							CHANNELS 3  Zrotation Xrotation Yrotation
							JOINT Frontleft_foot_endeffector_joint
							{
								OFFSET	-0.1086	-0.0059	-0.0138
								CHANNELS 3  Zrotation Xrotation Yrotation
								End Site
								{
									OFFSET	-0.000495293	-2.69082e-05	-6.29377e-05
								}
							}
							JOINT Frontleft_foot_cp_1_joint
							{
								OFFSET	-0.05	0.02	-0.005
								CHANNELS 3  Zrotation Xrotation Yrotation
								End Site
								{
									OFFSET	-0.00046225	0.0001849	-4.6225e-05
								}
							}
							JOINT Frontleft_foot_cp_2_joint
							{
								OFFSET	-0.12	0.02	-0.005
								CHANNELS 3  Zrotation Xrotation Yrotation
								End Site
								{
									OFFSET	-0.000492781	8.21302e-05	-2.05325e-05
								}
							}
							JOINT Frontleft_foot_cp_3_joint
							{
								OFFSET	-0.12	-0.08	-0.005
								CHANNELS 3  Zrotation Xrotation Yrotation
								End Site
								{
									OFFSET	-0.000415775	-0.000277184	-1.7324e-05
								}
							}
							JOINT Frontleft_foot_cp_4_joint
							{
								OFFSET	-0.05	-0.08	-0.005
								CHANNELS 3  Zrotation Xrotation Yrotation
								End Site
								{
									OFFSET	-0.000264628	-0.000423405	-2.64628e-05
								}
							}
						}
					}
				}
			}
		}
		JOINT BackLeftshoulder_joint
		{
			OFFSET	0	0	0
			CHANNELS 3  Zrotation Xrotation Yrotation
			JOINT BackLeftUpperLimb_x_joint
			{
				OFFSET	-0.1891	0	-0.0795
				CHANNELS 3  Zrotation Xrotation Yrotation
				JOINT BackLeftLimb_joint
				{
					OFFSET	-0.4456	0.0015	0.1781
					CHANNELS 3  Zrotation Xrotation Yrotation
					JOINT BackLeftLowerLimb_joint
					{
						OFFSET	-0.3928	-0.0167	-0.3044
						CHANNELS 3  Zrotation Xrotation Yrotation
						JOINT BackLeftEffector_x_joint
						{
							OFFSET	-0.4343	-0.054	-0.1597
							CHANNELS 3  Zrotation Xrotation Yrotation
							JOINT BackLeft_foot_endeffector_joint
							{
								OFFSET	-0.024924	-0.097428	0.001788
								CHANNELS 3  Zrotation Xrotation Yrotation
								End Site
								{
									OFFSET	-0.0001239	-0.000484324	8.88832e-06
								}
							}
							JOINT BackLeft_foot_cp_1_joint
							{
								OFFSET	-0.05	0.02	-0.005
								CHANNELS 3  Zrotation Xrotation Yrotation
								End Site
								{
									OFFSET	-0.00046225	0.0001849	-4.6225e-05
								}
							}
							JOINT BackLeft_foot_cp_2_joint
							{
								OFFSET	-0.12	0.02	-0.005
								CHANNELS 3  Zrotation Xrotation Yrotation
								End Site
								{
									OFFSET	-0.000492781	8.21302e-05	-2.05325e-05
								}
							}
							JOINT BackLeft_foot_cp_3_joint
							{
								OFFSET	-0.12	-0.08	-0.005
								CHANNELS 3  Zrotation Xrotation Yrotation
								End Site
								{
									OFFSET	-0.000415775	-0.000277184	-1.7324e-05
								}
							}
							JOINT BackLeft_foot_cp_4_joint
							{
								OFFSET	-0.05	-0.08	-0.005
								CHANNELS 3  Zrotation Xrotation Yrotation
								End Site
								{
									OFFSET	-0.000264628	-0.000423405	-2.64628e-05
								}
							}
						}
					}
				}
			}
		}
		JOINT BackRightshoulder_joint
		{
			OFFSET	0	0	0
			CHANNELS 3  Zrotation Xrotation Yrotation
			JOINT BackRightUpperLimb_x_joint
			{
				OFFSET	-0.1891	0	-0.0795
				CHANNELS 3  Zrotation Xrotation Yrotation
				JOINT BackRightLimb_joint
				{
					OFFSET	-0.4456	0.0015	0.1781
					CHANNELS 3  Zrotation Xrotation Yrotation
					JOINT BackRightLowerLimb_joint
					{
						OFFSET	-0.3928	-0.0167	-0.3044
						CHANNELS 3  Zrotation Xrotation Yrotation
						JOINT BackRightEffector_x_joint
						{
							OFFSET	-0.4343	-0.054	-0.1597
							CHANNELS 3  Zrotation Xrotation Yrotation
							JOINT BackRight_foot_endeffector_joint
							{
								OFFSET	-0.024924	-0.097428	0.001788
								CHANNELS 3  Zrotation Xrotation Yrotation
								End Site
								{
									OFFSET	-0.0001239	-0.000484324	8.88832e-06
								}
							}
							JOINT BackRight_foot_cp_1_joint
							{
								OFFSET	-0.05	0.02	-0.005
								CHANNELS 3  Zrotation Xrotation Yrotation
								End Site
								{
									OFFSET	-0.00046225	0.0001849	-4.6225e-05
								}
							}
							JOINT BackRight_foot_cp_2_joint
							{
								OFFSET	-0.12	0.02	-0.005
								CHANNELS 3  Zrotation Xrotation Yrotation
								End Site
								{
									OFFSET	-0.000492781	8.21302e-05	-2.05325e-05
								}
							}
							JOINT BackRight_foot_cp_3_joint
							{
								OFFSET	-0.12	-0.08	-0.005
								CHANNELS 3  Zrotation Xrotation Yrotation
								End Site
								{
									OFFSET	-0.000415775	-0.000277184	-1.7324e-05
								}
							}
							JOINT BackRight_foot_cp_4_joint
							{
								OFFSET	-0.05	-0.08	-0.005
								CHANNELS 3  Zrotation Xrotation Yrotation
								End Site
								{
									OFFSET	-0.000264628	-0.000423405	-2.64628e-05
								}
							}
						}
					}
				}
			}
		}
		JOINT MiddleRightshoulder_joint
		{
			OFFSET	0	0	0
			CHANNELS 3  Zrotation Xrotation Yrotation
			JOINT MiddleRightUpperLimb_x_joint
			{
				OFFSET	-0.1891	0	-0.0795
				CHANNELS 3  Zrotation Xrotation Yrotation
				JOINT MiddleRightLimb_joint
				{
					OFFSET	-0.4456	0.0015	0.1781
					CHANNELS 3  Zrotation Xrotation Yrotation
					JOINT MiddleRightLowerLimb_joint
					{
						OFFSET	-0.3928	-0.0167	-0.3044
						CHANNELS 3  Zrotation Xrotation Yrotation
						JOINT MiddleRightEffector_x_joint
						{
							OFFSET	-0.4343	-0.054	-0.1597
							CHANNELS 3  Zrotation Xrotation Yrotation
							JOINT MiddleRight_foot_endeffector_joint
							{
								OFFSET	-0.024924	-0.097428	0.001788
								CHANNELS 3  Zrotation Xrotation Yrotation
								End Site
								{
									OFFSET	-0.0001239	-0.000484324	8.88832e-06
								}
							}
							JOINT MiddleRight_foot_cp_1_joint
							{
								OFFSET	-0.05	0.02	-0.005
								CHANNELS 3  Zrotation Xrotation Yrotation
								End Site
								{
									OFFSET	-0.00046225	0.0001849	-4.6225e-05
								}
							}
							JOINT MiddleRight_foot_cp_2_joint
							{
								OFFSET	-0.12	0.02	-0.005
								CHANNELS 3  Zrotation Xrotation Yrotation
								End Site
								{
									OFFSET	-0.000492781	8.21302e-05	-2.05325e-05
								}
							}
							JOINT MiddleRight_foot_cp_3_joint
							{
								OFFSET	-0.12	-0.08	-0.005
								CHANNELS 3  Zrotation Xrotation Yrotation
								End Site
								{
									OFFSET	-0.000415775	-0.000277184	-1.7324e-05
								}
							}
							JOINT MiddleRight_foot_cp_4_joint
							{
								OFFSET	-0.05	-0.08	-0.005
								CHANNELS 3  Zrotation Xrotation Yrotation
								End Site
								{
									OFFSET	-0.000264628	-0.000423405	-2.64628e-05
								}
							}
						}
					}
				}
			}
		}
		JOINT FrontRightshoulder_joint
		{
			OFFSET	0	0	0
			CHANNELS 3  Zrotation Xrotation Yrotation
			JOINT FrontRightUpperLimb_x_joint
			{
				OFFSET	-0.1891	0	-0.0795
				CHANNELS 3  Zrotation Xrotation Yrotation
				JOINT FrontRightLimb_joint
				{
					OFFSET	-0.4456	0.0015	0.1781
					CHANNELS 3  Zrotation Xrotation Yrotation
					JOINT FrontRightLowerLimb_joint
					{
						OFFSET	-0.3928	-0.0167	-0.3044
						CHANNELS 3  Zrotation Xrotation Yrotation
						JOINT FrontRightEffector_x_joint
						{
							OFFSET	-0.4343	-0.054	-0.1597
							CHANNELS 3  Zrotation Xrotation Yrotation
							JOINT FrontRight_foot_endeffector_joint
							{
								OFFSET	-0.024924	-0.097428	0.001788
								CHANNELS 3  Zrotation Xrotation Yrotation
								End Site
								{
									OFFSET	-0.0001239	-0.000484324	8.88832e-06
								}
							}
							JOINT FrontRight_foot_cp_1_joint
							{
								OFFSET	-0.05	0.02	-0.005
								CHANNELS 3  Zrotation Xrotation Yrotation
								End Site
								{
									OFFSET	-0.00046225	0.0001849	-4.6225e-05
								}
							}
							JOINT FrontRight_foot_cp_2_joint
							{
								OFFSET	-0.12	0.02	-0.005
								CHANNELS 3  Zrotation Xrotation Yrotation
								End Site
								{
									OFFSET	-0.000492781	8.21302e-05	-2.05325e-05
								}
							}
							JOINT FrontRight_foot_cp_3_joint
							{
								OFFSET	-0.12	-0.08	-0.005
								CHANNELS 3  Zrotation Xrotation Yrotation
								End Site
								{
									OFFSET	-0.000415775	-0.000277184	-1.7324e-05
								}
							}
							JOINT FrontRight_foot_cp_4_joint
							{
								OFFSET	-0.05	-0.08	-0.005
								CHANNELS 3  Zrotation Xrotation Yrotation
								End Site
								{
									OFFSET	-0.000264628	-0.000423405	-2.64628e-05
								}
							}
						}
					}
				}
			}
		}
	}
}
MOTION
Frames:	12
Frame Time: 1
0	0	0	-90	-3.50824e-15	-90	-0	0	-0	-0	0	-0	-0	0	-0	-0	0	-0	-0	0	-0	-0	0	-0	-0	0	-0	-0	0	-0	-0	0	-0	-0	0	-0	-0	0	-0	-45	0	-0	-0	0	-0	-0	0	-0	-0	0	-0	-0	0	-0	-0	0	-0	-0	0	-0	-0	0	-0	-0	0	-0	-0	0	-0	45	0	-0	-0	0	-0	-0	0	-0	-0	0	-0	-0	0	-0	-0	0	-0	-0	0	-0	-0	0	-0	-0	0	-0	-0	0	-0	135	0	-0	-0	0	-0	-0	0	-0	-0	0	-0	-0	0	-0	-0	0	-0	-0	0	-0	-0	0	-0	-0	0	-0	-0	0	-0	180	0	-0	-0	0	-0	-0	0	-0	-0	0	-0	-0	0	-0	-0	0	-0	-0	0	-0	-0	0	-0	-0	0	-0	-0	0	-0	-135	0	-0	-0	0	-0	-0	0	-0	-0	0	-0	-0	0	-0	-0	0	-0	-0	0	-0	-0	0	-0	-0	0	-0	-0	0	-0
-0.3	3	3.3	-0	90	180	-0	0	-0	-0	0	-0	19.8115	-9.8548	33.4551	-0	0	-20.4498	-0	0	15.5504	-24.7189	-43.6587	-33.2089	-0.0572958	0	-0	-0	0	-0	-0	0	-0	-0	0	-0	-0	0	-0	-45	0	-0	25.1395	4.17258	-2.182	-0	0	-48.4793	-0	0	-0.399842	-22.5559	-35.9261	2.3708	-0.0572958	0	-0	-0	0	-0	-0	0	-0	-0	0	-0	-0	0	-0	45	0	-0	-0	0	-0	-0	0	-0	-0	0	-0	-0	0	-0	-0.0572958	0	-0	-0	0	-0	-0	0	-0	-0	0	-0	-0	0	-0	135	0	-0	-0	0	-0	-0	0	-0	-0	0	-0	-0	0	-0	-0.0572958	0	-0	-0	0	-0	-0	0	-0	-0	0	-0	-0	0	-0	180	0	-0	-2.92718	-5.5272	25.7443	-0	0	-19.8338	-0	0	3.30566	-10.6426	-33.0363	-27.5388	-0.0572958	0	-0	-0	0	-0	-0	0	-0	-0	0	-0	-0	0	-0	-135	0	-0	-3.02993	9.13064	-5.66357	-0	0	-12.1915	-0	0	-31.4224	-16.8247	-38.2123	-21.8229	-0.0572958	0	-0	-0	0	-0	-0	0	-0	-0	0	-0	-0	0	-0
-0.3	3	3.3	-0	90	180	-0	0	-0	-0	0	-0	19.8115	-9.8548	33.4551	-0	0	-20.4498	-0	0	15.5504	-24.7189	-43.6587	-33.2089	-0.0572958	0	-0	-0	0	-0	-0	0	-0	-0	0	-0	-0	0	-0	-45	0	-0	25.1395	4.17258	-2.182	-0	0	-48.4793	-0	0	-0.399842	-22.5559	-35.9261	2.3708	-0.0572958	0	-0	-0	0	-0	-0	0	-0	-0	0	-0	-0	0	-0	45	0	-0	-0	0	-0	-0	0	-0	-0	0	-0	-0	0	-0	-0.0572958	0	-0	-0	0	-0	-0	0	-0	-0	0	-0	-0	0	-0	135	0	-0	-0	0	-0	-0	0	-0	-0	0	-0	-0	0	-0	-0.0572958	0	-0	-0	0	-0	-0	0	-0	-0	0	-0	-0	0	-0	180	0	-0	-2.92718	-5.5272	25.7443	-0	0	-19.8338	-0	0	3.30566	-10.6426	-33.0363	-27.5388	-0.0572958	0	-0	-0	0	-0	-0	0	-0	-0	0	-0	-0	0	-0	-135	0	-0	-3.02993	9.13064	-5.66357	-0	0	-12.1915	-0	0	-31.4224	-16.8247	-38.2123	-21.8229	-0.0572958	0	-0	-0	0	-0	-0	0	-0	-0	0	-0	-0	0	-0
-0.3	3	3.3	-0	90	180	-0	0	-0	-0	0	-0	19.8115	-9.8548	33.4551	-0	0	-20.4498	-0	0	15.5504	-24.7189	-43.6587	-33.2089	-0.0572958	0	-0	-0	0	-0	-0	0	-0	-0	0	-0	-0	0	-0	-45	0	-0	25.1395	4.17258	-2.182	-0	0	-48.4793	-0	0	-0.399842	-22.5559	-35.9261	2.3708	-0.0572958	0	-0	-0	0	-0	-0	0	-0	-0	0	-0	-0	0	-0	45	0	-0	-0	0	-0	-0	0	-0	-0	0	-0	-0	0	-0	-0.0572958	0	-0	-0	0	-0	-0	0	-0	-0	0	-0	-0	0	-0	135	0	-0	-0	0	-0	-0	0	-0	-0	0	-0	-0	0	-0	-0.0572958	0	-0	-0	0	-0	-0	0	-0	-0	0	-0	-0	0	-0	180	0	-0	-2.92718	-5.5272	25.7443	-0	0	-19.8338	-0	0	3.30566	-10.6426	-33.0363	-27.5388	-0.0572958	0	-0	-0	0	-0	-0	0	-0	-0	0	-0	-0	0	-0	-135	0	-0	-3.02993	9.13064	-5.66357	-0	0	-12.1915	-0	0	-31.4224	-16.8247	-38.2123	-21.8229	-0.0572958	0	-0	-0	0	-0	-0	0	-0	-0	0	-0	-0	0	-0
-0.337328	3.07119	3.35948	-105.512	75.1103	-71.7879	-0	0	-0	-0	0	-0	6.09642	-8.31325	35.1633	-0	0	-33.8296	-0	0	20.9929	-23.8911	-51.3933	-24.0608	-0.0572958	0	-0	-0	0	-0	-0	0	-0	-0	0	-0	-0	0	-0	-45	0	-0	0.508021	12.8676	-0.377589	-0	0	-57.3898	-0	0	-13.524	-35.4153	-50.9095	-7.85615	-0.0572958	0	-0	-0	0	-0	-0	0	-0	-0	0	-0	-0	0	-0	45	0	-0	-0	0	-0	-0	0	-0	-0	0	-0	-0	0	-0	-0.0572958	0	-0	-0	0	-0	-0	0	-0	-0	0	-0	-0	0	-0	135	0	-0	5.16207	21.958	20.4454	-0	0	-12.288	-0	0	23.5004	-5.63606	-29.9939	-24.1661	-0.0572958	0	-0	-0	0	-0	-0	0	-0	-0	0	-0	-0	0	-0	180	0	-0	13.4495	7.26402	1.81071	-0	0	-14.0586	-0	0	-41.6711	-22.64	-40.0028	-28.3821	-0.0572958	0	-0	-0	0	-0	-0	0	-0	-0	0	-0	-0	0	-0	-135	0	-0	17.7438	7.28476	-6.59698	-0	0	-44.3002	-0	0	15.8558	-15.4555	-38.0975	-22.7012	-0.0572958	0	-0	-0	0	-0	-0	0	-0	-0	0	-0	-0	0	-0
-0.337328	3.07119	3.35948	-105.512	75.1103	-71.7879	-0	0	-0	-0	0	-0	6.09642	-8.31325	35.1633	-0	0	-33.8296	-0	0	20.9929	-23.8911	-51.3933	-24.0608	-0.0572958	0	-0	-0	0	-0	-0	0	-0	-0	0	-0	-0	0	-0	-45	0	-0	0.508021	12.8676	-0.377589	-0	0	-57.3898	-0	0	-13.524	-35.4153	-50.9095	-7.85615	-0.0572958	0	-0	-0	0	-0	-0	0	-0	-0	0	-0	-0	0	-0	45	0	-0	-0	0	-0	-0	0	-0	-0	0	-0	-0	0	-0	-0.0572958	0	-0	-0	0	-0	-0	0	-0	-0	0	-0	-0	0	-0	135	0	-0	5.16207	21.958	20.4454	-0	0	-12.288	-0	0	23.5004	-5.63606	-29.9939	-24.1661	-0.0572958	0	-0	-0	0	-0	-0	0	-0	-0	0	-0	-0	0	-0	180	0	-0	13.4495	7.26402	1.81071	-0	0	-14.0586	-0	0	-41.6711	-22.64	-40.0028	-28.3821	-0.0572958	0	-0	-0	0	-0	-0	0	-0	-0	0	-0	-0	0	-0	-135	0	-0	17.7438	7.28476	-6.59698	-0	0	-44.3002	-0	0	15.8558	-15.4555	-38.0975	-22.7012	-0.0572958	0	-0	-0	0	-0	-0	0	-0	-0	0	-0	-0	0	-0
-0.374655	3.14239	3.41897	-104.114	60.2291	-70.3907	-0	0	-0	-0	0	-0	-9.2943	-4.9069	37.236	-0	0	-46.4802	-0	0	25.5393	-20.6849	-57.5405	-14.0292	-0.0572958	0	-0	-0	0	-0	-0	0	-0	-0	0	-0	-0	0	-0	-45	0	-0	21.4116	5.77315	25.7763	-0	0	-41.1175	-0	0	4.68563	-4.97007	-17.9053	-12.1414	-0.0572958	0	-0	-0	0	-0	-0	0	-0	-0	0	-0	-0	0	-0	45	0	-0	-0	0	-0	-0	0	-0	-0	0	-0	-0	0	-0	-0.0572958	0	-0	-0	0	-0	-0	0	-0	-0	0	-0	-0	0	-0	135	0	-0	-9.30693	15.8151	26.8736	-0	0	-26.7081	-0	0	16.6896	-12.2844	-33.8442	-27.3053	-0.0572958	0	-0	-0	0	-0	-0	0	-0	-0	0	-0	-0	0	-0	180	0	-0	8.85692	23.1399	-2.70894	-0	0	-11.231	-0	0	-32.6928	-25.5946	-43.1727	-11.3804	-0.0572958	0	-0	-0	0	-0	-0	0	-0	-0	0	-0	-0	0	-0	-135	0	-0	12.7373	25.5923	-11.5065	-0	0	-39.3745	-0	0	21.0074	-14.6135	-33.301	-5.17558	-0.0572958	0	-0	-0	0	-0	-0	0	-0	-0	0	-0	-0	0	-0
-0.374655	3.14239	3.41897	-104.114	60.2291	-70.3907	-0	0	-0	-0	0	-0	-17.5477	6.28953	58.7816	-0	0	-69.2364	-0	0	-17.2541	-15.1402	-35.9562	-21.7747	-0.0572958	0	-0	-0	0	-0	-0	0	-0	-0	0	-0	-0	0	-0	-45	0	-0	21.4116	5.77315	25.7763	-0	0	-41.1175	-0	0	4.68563	-4.97007	-17.9053	-12.1414	-0.0572958	0	-0	-0	0	-0	-0	0	-0	-0	0	-0	-0	0	-0	45	0	-0	-0	0	-0	-0	0	-0	-0	0	-0	-0	0	-0	-0.0572958	0	-0	-0	0	-0	-0	0	-0	-0	0	-0	-0	0	-0	135	0	-0	-9.30693	15.8151	26.8736	-0	0	-26.7081	-0	0	16.6896	-12.2844	-33.8442	-27.3053	-0.0572958	0	-0	-0	0	-0	-0	0	-0	-0	0	-0	-0	0	-0	180	0	-0	8.85692	23.1399	-2.70894	-0	0	-11.231	-0	0	-32.6928	-25.5946	-43.1727	-11.3804	-0.0572958	0	-0	-0	0	-0	-0	0	-0	-0	0	-0	-0	0	-0	-135	0	-0	12.7373	25.5923	-11.5065	-0	0	-39.3745	-0	0	21.0074	-14.6135	-33.301	-5.17558	-0.0572958	0	-0	-0	0	-0	-0	0	-0	-0	0	-0	-0	0	-0
-0.374655	3.14239	3.41897	-104.114	60.2291	-70.3907	-0	0	-0	-0	0	-0	-17.5477	6.28953	58.7816	-0	0	-69.2364	-0	0	-17.2541	-15.1402	-35.9562	-21.7747	-0.0572958	0	-0	-0	0	-0	-0	0	-0	-0	0	-0	-0	0	-0	-45	0	-0	21.4116	5.77315	25.7763	-0	0	-41.1175	-0	0	4.68563	-4.97007	-17.9053	-12.1414	-0.0572958	0	-0	-0	0	-0	-0	0	-0	-0	0	-0	-0	0	-0	45	0	-0	-0	0	-0	-0	0	-0	-0	0	-0	-0	0	-0	-0.0572958	0	-0	-0	0	-0	-0	0	-0	-0	0	-0	-0	0	-0	135	0	-0	-9.30693	15.8151	26.8736	-0	0	-26.7081	-0	0	16.6896	-12.2844	-33.8442	-27.3053	-0.0572958	0	-0	-0	0	-0	-0	0	-0	-0	0	-0	-0	0	-0	180	0	-0	8.85692	23.1399	-2.70894	-0	0	-11.231	-0	0	-32.6928	-25.5946	-43.1727	-11.3804	-0.0572958	0	-0	-0	0	-0	-0	0	-0	-0	0	-0	-0	0	-0	-135	0	-0	-9.53868	10.8866	-12.8948	-0	0	-4.62632	-0	0	-10.8555	-7.20078	-36.9436	-15.9513	-0.0572958	0	-0	-0	0	-0	-0	0	-0	-0	0	-0	-0	0	-0
-0.411983	3.21358	3.47845	-102.617	45.3661	-68.8931	-0	0	-0	-0	0	-0	5.02241	-0.121389	51.8448	-0	0	-6.11432	-0	0	-21.7294	-26.8455	-39.0161	-38.1007	-0.0572958	0	-0	-0	0	-0	-0	0	-0	-0	0	-0	-0	0	-0	-45	0	-0	5.54354	16.6055	28.9275	-0	0	-49.9049	-0	0	5.21201	-4.75578	-13.65	-5.76355	-0.0572958	0	-0	-0	0	-0	-0	0	-0	-0	0	-0	-0	0	-0	45	0	-0	-6.67051	-14.3775	10.9503	-0	0	12.0757	-0	0	-1.37086	-26.8455	-39.0161	-38.1007	-0.0572958	0	-0	-0	0	-0	-0	0	-0	-0	0	-0	-0	0	-0	135	0	-0	-13.0662	7.90462	29.4492	-0	0	-26.4231	-0	0	-5.3131	-8.71249	-28.7544	-13.9816	-0.0572958	0	-0	-0	0	-0	-0	0	-0	-0	0	-0	-0	0	-0	180	0	-0	2.05747	31.4717	-14.3186	-0	0	-1.76239	-0	0	-22.5947	-32.4351	-46.1629	-3.11761	-0.0572958	0	-0	-0	0	-0	-0	0	-0	-0	0	-0	-0	0	-0	-135	0	-0	19.8738	16.2962	-11.8991	-0	0	-26.9929	-0	0	9.61953	-15.8847	-29.9686	-1.79897	-0.0572958	0	-0	-0	0	-0	-0	0	-0	-0	0	-0	-0	0	-0
-0.411983	3.21358	3.47845	-102.617	45.3661	-68.8931	-0	0	-0	-0	0	-0	5.02241	-0.121389	51.8448	-0	0	-6.11432	-0	0	-21.7294	-26.8455	-39.0161	-38.1007	-0.0572958	0	-0	-0	0	-0	-0	0	-0	-0	0	-0	-0	0	-0	-45	0	-0	5.54354	16.6055	28.9275	-0	0	-49.9049	-0	0	5.21201	-4.75578	-13.65	-5.76355	-0.0572958	0	-0	-0	0	-0	-0	0	-0	-0	0	-0	-0	0	-0	45	0	-0	-6.67051	-14.3775	10.9503	-0	0	12.0757	-0	0	-1.37086	-26.8455	-39.0161	-38.1007	-0.0572958	0	-0	-0	0	-0	-0	0	-0	-0	0	-0	-0	0	-0	135	0	-0	-13.0662	7.90462	29.4492	-0	0	-26.4231	-0	0	-5.3131	-8.71249	-28.7544	-13.9816	-0.0572958	0	-0	-0	0	-0	-0	0	-0	-0	0	-0	-0	0	-0	180	0	-0	5.53487	2.12101	-12.8833	-0	0	-21.3331	-0	0	18.7003	-9.73493	-36.1313	-17.7519	-0.0572958	0	-0	-0	0	-0	-0	0	-0	-0	0	-0	-0	0	-0	-135	0	-0	19.8738	16.2962	-11.8991	-0	0	-26.9929	-0	0	9.61953	-15.8847	-29.9686	-1.79897	-0.0572958	0	-0	-0	0	-0	-0	0	-0	-0	0	-0	-0	0	-0
-0.449311	3.28477	3.53793	-100.95	30.5336	-67.2263	-0	0	-0	-0	0	-0	-12.0636	4.82226	60.4638	-0	0	-55.2998	-0	0	-20.1332	-10.8805	-30.7308	-25.8167	-0.0572958	0	-0	-0	0	-0	-0	0	-0	-0	0	-0	-0	0	-0	-45	0	-0	-11.7106	26.5846	28.2668	-0	0	-52.2668	-0	0	5.80357	-5.95366	-13.0928	-0.553704	-0.0572958	0	-0	-0	0	-0	-0	0	-0	-0	0	-0	-0	0	-0	45	0	-0	-8.8443	6.06511	11.515	-0	0	1.06711	-0	0	3.3228	-26.8455	-39.0161	-38.1007	-0.0572958	0	-0	-0	0	-0	-0	0	-0	-0	0	-0	-0	0	-0	135	0	-0	6.00815	-6.43994	1.29135	-0	0	-48.3316	-0	0	-22.0276	-31.9755	-41.961	-34.3833	-0.0572958	0	-0	-0	0	-0	-0	0	-0	-0	0	-0	-0	0	-0	180	0	-0	-1.6647	12.929	-21.3952	-0	0	-3.72686	-0	0	16.8495	-14.9476	-28.4161	-10.7777	-0.0572958	0	-0	-0	0	-0	-0	0	-0	-0	0	-0	-0	0	-0	-135	0	-0	8.16718	28.0263	-18.6801	-0	0	-14.9825	-0	0	10.7212	-21.8023	-25.8068	5.13693	-0.0572958	0	-0	-0	0	-0	-0	0	-0	-0	0	-0	-0	0	-0
